<?xml version="1.0" standalone="no"?>
<!DOCTYPE svg PUBLIC "-//W3C//DTD SVG 20010904//EN"
 "http://www.w3.org/TR/2001/REC-SVG-20010904/DTD/svg10.dtd">
<svg version="1.0" xmlns="http://www.w3.org/2000/svg"
 width="164.000000pt" height="55.000000pt" viewBox="0 0 164.000000 55.000000"
 preserveAspectRatio="xMidYMid meet">

<g transform="translate(0.000000,55.000000) scale(0.100000,-0.100000)"
fill="#000000" stroke="none">
<path d="M785 408 c-2 -7 -6 -57 -7 -111 -3 -92 -2 -97 17 -97 18 0 20 5 17
37 l-5 38 42 -38 c23 -21 46 -35 51 -32 5 3 -9 22 -31 42 l-41 37 22 18 c12
10 28 18 36 18 8 0 14 5 14 10 0 17 -21 11 -54 -17 l-31 -26 -3 66 c-3 61 -16
87 -27 55z"/>
<path d="M340 393 c0 -13 3 -14 12 -5 7 7 25 12 41 12 l29 0 -4 -100 c-2 -84
-1 -100 12 -100 13 0 14 16 12 100 l-3 100 25 0 c14 0 28 -4 31 -10 9 -15 25
-12 25 5 0 12 -17 15 -90 15 -78 0 -90 -2 -90 -17z"/>
<path d="M557 404 c-8 -8 1 -24 14 -24 5 0 9 7 9 15 0 15 -12 20 -23 9z"/>
<path d="M1117 384 c-4 -4 -7 -15 -7 -25 0 -9 -6 -20 -12 -22 -10 -4 -10 -6 0
-6 8 -1 12 -20 12 -60 0 -50 3 -59 20 -64 16 -4 18 -2 10 13 -6 10 -10 37 -10
60 0 35 4 43 22 48 21 5 21 6 3 12 -11 4 -22 17 -25 29 -3 13 -8 19 -13 15z"/>
<path d="M565 343 c-6 -1 -8 -27 -7 -58 3 -34 -1 -61 -8 -70 -10 -13 -8 -15
11 -15 23 0 24 3 21 52 -4 84 -6 95 -17 91z"/>
<path d="M647 322 c-25 -28 -22 -87 5 -106 26 -18 56 -20 78 -6 11 7 6 8 -16
4 -25 -5 -35 -2 -48 17 -19 28 -21 70 -4 87 16 16 65 15 71 0 3 -8 6 -6 6 5 1
24 -70 24 -92 -1z"/>
<path d="M957 322 c-25 -28 -22 -87 5 -106 26 -18 66 -20 88 -5 12 8 10 9 -7
4 -51 -14 -84 23 -74 80 5 23 12 31 33 33 18 2 30 -3 37 -16 6 -11 7 -22 4
-26 -3 -3 1 -6 10 -6 21 0 21 9 1 38 -19 28 -74 30 -97 4z"/>
<path d="M1207 333 c-4 -3 -7 -16 -7 -29 0 -16 10 -26 41 -38 53 -21 51 -51
-3 -51 -20 0 -34 -3 -31 -7 8 -14 61 -8 77 8 29 28 20 52 -24 65 -40 12 -55
41 -27 52 8 4 6 6 -4 6 -9 1 -19 -2 -22 -6z"/>
<path d="M1251 337 c2 -1 12 -9 22 -16 14 -12 17 -11 17 3 0 10 -8 16 -22 16
-12 0 -19 -1 -17 -3z"/>
</g>
</svg>
